<?xml version="1.0" encoding="UTF-8" standalone="no"?>
<!-- Created with Inkscape (http://www.inkscape.org/) -->

<svg
   xmlns:dc="http://purl.org/dc/elements/1.1/"
   xmlns:cc="http://creativecommons.org/ns#"
   xmlns:rdf="http://www.w3.org/1999/02/22-rdf-syntax-ns#"
   xmlns:svg="http://www.w3.org/2000/svg"
   xmlns="http://www.w3.org/2000/svg"
   xmlns:sodipodi="http://sodipodi.sourceforge.net/DTD/sodipodi-0.dtd"
   xmlns:inkscape="http://www.inkscape.org/namespaces/inkscape"
   width="51.292099mm"
   height="36.434975mm"
   viewBox="0 0 181.74366 129.1003"
   id="svg20635"
   version="1.1"
   inkscape:version="0.91 r13725"
   sodipodi:docname="logocafevelo_short.svg"
   inkscape:export-filename="/srv/http/wordpress/images/logoheyvelo.png"
   inkscape:export-xdpi="83.660004"
   inkscape:export-ydpi="83.660004">
  <defs
     id="defs20637" />
  <sodipodi:namedview
     id="base"
     pagecolor="#ffd740"
     bordercolor="#666666"
     borderopacity="1.0"
     inkscape:pageopacity="0"
     inkscape:pageshadow="2"
     inkscape:zoom="0.35"
     inkscape:cx="375"
     inkscape:cy="520"
     inkscape:document-units="px"
     inkscape:current-layer="layer1"
     showgrid="false"
     fit-margin-top="0"
     fit-margin-left="0"
     fit-margin-right="0"
     fit-margin-bottom="0" />
  <metadata
     id="metadata20640">
    <rdf:RDF>
      <cc:Work
         rdf:about="">
        <dc:format>image/svg+xml</dc:format>
        <dc:type
           rdf:resource="http://purl.org/dc/dcmitype/StillImage" />
        <dc:title></dc:title>
      </cc:Work>
    </rdf:RDF>
  </metadata>
  <g
     inkscape:label="Layer 1"
     inkscape:groupmode="layer"
     id="layer1"
     transform="translate(-169.12817,-410.6692)">
    <g
       style="opacity:1"
       id="g6857"
       transform="matrix(0.7,0,0,0.7,55.122559,12.419751)"
       inkscape:export-xdpi="83.655891"
       inkscape:export-ydpi="83.655891">
      <g
         id="g5912"
         style="">
        <path
           inkscape:export-ydpi="83.660004"
           inkscape:export-xdpi="83.660004"
           id="path5754"
           d="m 306.51954,580.89606 a 115.97942,79.888602 0 0 0 -48.98577,7.57488 l 45.26551,49.31049 26.00035,-55.37108 a 115.97942,79.888602 0 0 0 -22.28009,-1.51429 z m 43.99818,6.0137 -23.95854,59.44273 90.28584,-9.89663 a 115.97942,79.888602 0 0 0 -66.3273,-49.5461 z m -113.38568,9.96298 a 115.97942,79.888602 0 0 0 -46.59192,63.9124 115.97942,79.888602 0 0 0 0.34449,5.96108 l 91.87503,-14.53329 -45.6276,-55.34019 z m 185.02118,57.95017 -91.87504,14.53329 45.6276,55.34134 a 115.97942,79.888602 0 0 0 46.59318,-63.9124 115.97942,79.888602 0 0 0 -0.34574,-5.96223 z m -135.67457,20.39487 -90.28584,9.89664 a 115.97942,79.888602 0 0 0 66.3273,49.5461 l 23.95854,-59.44274 z m 23.7599,8.57107 -25.9991,55.37108 a 115.97942,79.888602 0 0 0 22.28009,1.51429 115.97942,79.888602 0 0 0 48.98451,-7.57488 l -45.2655,-49.31049 z"
           clip-path="none"
           style="fill:#8fd3a7;fill-opacity:1;stroke:none;stroke-opacity:1;color:#000000;clip-rule:nonzero;display:inline;overflow:visible;visibility:visible;opacity:1;isolation:auto;mix-blend-mode:normal;color-interpolation:sRGB;color-interpolation-filters:linearRGB;solid-color:#000000;solid-opacity:1;fill-rule:nonzero;stroke-width:1;stroke-linecap:butt;stroke-linejoin:miter;stroke-miterlimit:4;stroke-dasharray:none;stroke-dashoffset:0;filter-blend-mode:normal;filter-gaussianBlur-deviation:0;color-rendering:auto;image-rendering:auto;shape-rendering:auto;text-rendering:auto;enable-background:accumulate"
           inkscape:connector-curvature="0" />
        <path
           inkscape:export-ydpi="83.660004"
           inkscape:export-xdpi="83.660004"
           style="fill:#01aea1;fill-opacity:1"
           inkscape:connector-curvature="0"
           id="path4144"
           d="m 292.64265,568.92778 a 129.77752,92.214398 0 0 0 -129.77749,92.2145 129.77752,92.214398 0 0 0 129.77749,92.2145 129.77752,92.214398 0 0 0 129.7775,-92.2145 129.77752,92.214398 0 0 0 -129.7775,-92.2145 z m 13.27744,16.48884 a 113.93009,76.336422 0 0 1 113.93036,76.3367 113.93009,76.336422 0 0 1 -113.93036,76.33611 113.93009,76.336422 0 0 1 -113.92951,-76.33611 113.93009,76.336422 0 0 1 113.92951,-76.3367 z"
           clip-path="none" />
      </g>
    </g>
    <path
       style="color:#000000;clip-rule:nonzero;display:inline;overflow:visible;visibility:visible;opacity:1;isolation:auto;mix-blend-mode:normal;color-interpolation:sRGB;color-interpolation-filters:linearRGB;solid-color:#000000;solid-opacity:1;fill:#ff9800;fill-opacity:1;fill-rule:nonzero;stroke:#121212;stroke-width:0.50507629;stroke-linecap:round;stroke-linejoin:round;stroke-miterlimit:4;stroke-dasharray:none;stroke-dashoffset:0;stroke-opacity:1;color-rendering:auto;image-rendering:auto;shape-rendering:auto;text-rendering:auto;enable-background:accumulate"
       d="m 249.07838,527.06729 c -3.0204,-0.51413 -6.35469,-1.16718 -7.40954,-1.45122 l -1.91789,-0.51643 8.04774,-20.01923 c 4.42625,-11.01057 7.98783,-20.06493 7.91461,-20.1208 -0.0732,-0.0559 -14.10715,1.4413 -31.18651,3.32703 -17.07937,1.88573 -31.1289,3.3531 -31.22118,3.26082 -0.53833,-0.53834 -2.72733,-7.78089 -2.96936,-9.82448 -0.26605,-2.24636 -0.1981,-2.44871 0.91095,-2.71276 0.65915,-0.15694 14.49458,-2.36038 30.74541,-4.89655 16.25083,-2.53617 29.92137,-4.76907 30.37898,-4.96202 0.65983,-0.2782 -2.28023,-4.11385 -14.20612,-18.53355 l -15.03815,-18.18274 1.57922,-0.82292 c 2.50702,-1.3064 11.29328,-4.48396 12.29003,-4.44471 0.52044,0.0205 7.03125,6.77305 15.30061,15.86871 7.91708,8.70817 14.52519,15.85158 14.6847,15.87423 0.15951,0.0226 4.02334,-7.93955 8.5863,-17.69378 l 8.29627,-17.73497 2.89984,0.30164 c 1.59492,0.1659 5.01972,0.7886 7.61069,1.38376 l 4.71084,1.08212 -7.73742,19.21284 c -4.25558,10.56707 -7.65286,19.29741 -7.54951,19.40076 0.10335,0.10334 13.77871,-1.30664 30.38968,-3.1333 24.17372,-2.65831 30.28523,-3.19137 30.61989,-2.67073 1.38296,2.15152 3.99492,11.13627 3.40803,11.72315 -0.13571,0.13571 -13.98858,2.42004 -30.78416,5.07629 -16.79558,2.65624 -30.72689,4.88868 -30.95847,4.96097 -0.23158,0.0723 6.5132,8.53461 14.98839,18.80516 11.21559,13.59146 15.2223,18.77874 14.72181,19.05954 -1.73857,0.97543 -12.06299,4.9175 -12.87908,4.9175 -0.55641,0 -6.81643,-6.4338 -15.95816,-16.40115 -8.27343,-9.02063 -15.09097,-16.35055 -15.1501,-16.28871 -0.0591,0.0618 -3.72802,7.84011 -8.1531,17.28504 -4.42507,9.44492 -8.36689,17.76494 -8.75959,18.48893 l -0.714,1.31635 -5.49165,-0.93479 z"
       id="path21212"
       inkscape:connector-curvature="0"
       inkscape:export-xdpi="83.655891"
       inkscape:export-ydpi="83.655891" />
  </g>
</svg>
